<svg xmlns="http://www.w3.org/2000/svg" width="951.439" height="224.264" viewBox="0 0 951.439 224.264">
    <path fill="#adadad"
          d="M0 209.126h117.178c.56.56 1.12 1.12 1.682 1.12l.56.562.562.56c.562.562 1.122.562 1.683 1.122.56.56 1.12 1.122 2.242 1.683v3.925H0v-8.972zm256.782 3.925l8.41 6.73h684.004v-10.65H256.782v3.93zm51.58-187.26c16.82 16.82 25.79 39.81 25.79 66.72 0 26.35-9.53 49.9-26.35 66.72s-40.368 26.35-66.72 26.35c-29.715 0-56.065-11.77-73.446-33.08-12.895-16.26-20.184-37-20.184-59.43 0-29.71 11.774-56.06 32.52-72.88C196.79 6.73 217.535 0 241.08 0c26.913 0 50.46 8.97 67.28 25.79m-67.28 140.726c26.353 0 47.097-15.698 56.067-43.17 3.362-9.532 5.045-20.185 5.045-30.837 0-19.07-5.046-37.01-14.577-50.46-11.213-15.7-26.912-23.55-46.535-23.55-15.698 0-29.154 5.6-39.807 16.26-13.453 13.45-21.863 35.32-21.303 58.31 0 15.13 3.365 29.71 10.093 41.48 10.092 20.742 29.155 31.96 51.02 31.96m0 17.94zM417.69 79.61c-1.682-.56-3.924-1.68-6.728-2.8-14.017-5.043-35.32-12.89-34.76-33.08.56-14.573 12.334-25.23 27.472-25.23 14.577 0 25.23 7.85 29.154 20.19v.56l3.924 1.68 11.774-25.79-.56-.56C437.872 5.047 424.416.56 408.718.56c-29.716 0-53.264 16.258-58.31 40.927-3.364 16.26 1.12 31.958 11.773 42.05 7.85 7.848 19.07 12.333 29.16 16.82h.56c10.66 4.484 25.79 10.09 33.64 19.623 4.49 5.606 6.17 12.895 5.05 21.305-2.24 14.577-13.452 24.67-28.59 25.23-22.426 1.12-42.05-12.336-45.413-29.155v-.56l-4.485-1.684-8.41 28.594.56.56c11.217 12.897 30.28 20.186 52.145 20.186h2.24c34.2-1.122 59.43-25.23 59.43-57.188.56-19.622-13.454-35.88-40.366-47.655m498.42-76.25l6.73 10.654v102.6L821.928 3.925l-.563-.56h-33.078l8.97 14.016v154.75l-6.728 10.658h35.32l-5.045-10.093V47.657l123.905 136.24 1.682 2.242V14.57l5.047-11.213h-35.323zM694.1 163.713V99.796h56.626l6.73-19.063-3.365 1.12h-60.55v-60.55h48.78l16.82 5.608 8.41-23.54H658.22l5.046 13.46v153.62l-5.048 12.335H765.3l8.41-24.107-21.306 5.605h-58.31v-.56zM639.71 3.363h-41.488l6.728 10.653v68.4h-95.31v-68.96l5.045-10.093h-41.488l6.728 10.653V172.12l-6.728 10.653h41.488l-5.046-10.092V99.8h95.31v71.764l-6.73 10.654h41.49l-5.05-10.092V13.456l5.04-10.09zM227.628 212.49h-4.485c-30.837 0-63.354-21.306-96.434-62.794-12.9-16.26-27.48-34.762-40.37-49.9 25.79-4.484 43.73-24.668 43.73-48.776 0-30.276-24.11-49.338-62.8-49.338L7.85 3.364l5.606 13.456v155.302l-6.168 10.652h41.49l-5.047-10.092V19.062c38.13-2.803 56.07 7.29 57.75 31.96.56 10.09-2.24 19.062-8.97 26.35-8.41 9.53-22.43 15.138-40.37 15.698h-.56l-1.68 4.485 22.99 28.595 4.49 5.6c40.37 51.58 72.33 92.51 121.108 92.51 10.093 0 20.745-1.683 31.958-5.046l1.12-.56-3.36-6.17h-.56z"/>
</svg>