<svg width="256" height="256" xmlns="http://www.w3.org/2000/svg" version="1.1">
    <g>
        <svg xmlns="http://www.w3.org/2000/svg" viewBox="0 0 24 24" width="256" height="256">
            <g fill="none" stroke="#dcdcdc" stroke-linecap="round" stroke-linejoin="round" stroke-miterlimit="10"
               class="colorStroke303C42 svgStroke">
                <path d="M.553 10.609L23.21 4.825M9.023 3.701c-3.328 2.572-7.66 5.918-7.845 6.046l-.035.025-.048.032-.005.011C.733 10.09.5 10.515.5 11v11a1.5 1.5 0 001.821 1.464l19.721-5.553a2 2 0 001.458-1.926V5.855a2 2 0 00-1.257-1.858L13.953.613l-.01.001A.978.978 0 0013.5.5a.988.988 0 00-.663.263l-.012.002-.638.491M.5 17.5l23-6.5"
                      fill="none">

                </path>
                <path d="M13.568 2.432C12.56 1.099 10.5.5 10.5.5c0 .363.124.654 0 1C9.643 1.897 9 2.994 9 4c0 .833 1.114 1.494 2.494 1.494S14 4.834 14 4c0-.257-.006-1.006-.432-1.568z"
                      fill="none">
                </path>
            </g>
        </svg>
    </g>
</svg>