<svg version="1.1" xmlns="http://www.w3.org/2000/svg" xmlns:xlink="http://www.w3.org/1999/xlink" width="16" height="16" viewBox="0,0,256,256"><g fill="#a9b63f" fill-rule="nonzero" stroke="none" stroke-width="1" stroke-linecap="butt" stroke-linejoin="miter" stroke-miterlimit="10" stroke-dasharray="" stroke-dashoffset="0" font-family="none" font-weight="none" font-size="none" text-anchor="none" style="mix-blend-mode: normal"><g transform="scale(16,16)"><path d="M1,3c0,-0.55228 0.44772,-1 1,-1h12c0.55228,0 1,0.44772 1,1zM8,11c1.10457,0 2,-0.89543 2,-2c0,-1.10457 -0.89543,-2 -2,-2c-1.10457,0 -2,0.89543 -2,2c0,1.10457 0.89543,2 2,2z"></path><path d="M0,5c0,-0.55228 0.44772,-1 1,-1h14c0.55228,0 1,0.44772 1,1v8c0,0.55228 -0.44772,1 -1,1h-14c-0.55228,0 -1,-0.44772 -1,-1zM3,5c0,1.10457 -0.89543,2 -2,2v4c1.10457,0 2,0.89543 2,2h10c0,-1.10457 0.89543,-2 2,-2v-4c-1.10457,0 -2,-0.89543 -2,-2z"></path></g></g></svg>