<svg version="1.1" xmlns="http://www.w3.org/2000/svg" xmlns:xlink="http://www.w3.org/1999/xlink" width="16" height="16" viewBox="0,0,256,256"><g fill="#a9b63f" fill-rule="nonzero" stroke="none" stroke-width="1" stroke-linecap="butt" stroke-linejoin="miter" stroke-miterlimit="10" stroke-dasharray="" stroke-dashoffset="0" font-family="none" font-weight="none" font-size="none" text-anchor="none" style="mix-blend-mode: normal"><g transform="translate(0,5.336) scale(16,16)"><path d="M14,1c0.55228,0 1,0.44772 1,1v8c0,0.55228 -0.44772,1 -1,1h-2.5c-0.62951,0 -1.22229,0.29639 -1.6,0.8l-1.9,2.533l-1.9,-2.533c-0.37771,-0.50361 -0.97049,-0.8 -1.6,-0.8h-2.5c-0.55228,0 -1,-0.44772 -1,-1v-8c0,-0.55228 0.44772,-1 1,-1zM2,0c-1.10457,0 -2,0.89543 -2,2v8c0,1.10457 0.89543,2 2,2h2.5c0.31476,0 0.61115,0.14819 0.8,0.4l1.9,2.533c0.18885,0.25181 0.48524,0.4 0.8,0.4c0.31476,0 0.61115,-0.14819 0.8,-0.4l1.9,-2.533c0.18885,-0.25181 0.48524,-0.4 0.8,-0.4h2.5c1.10457,0 2,-0.89543 2,-2v-8c0,-1.10457 -0.89543,-2 -2,-2z"></path><path d="M3,3.5c0,-0.27614 0.22386,-0.5 0.5,-0.5h9c0.27614,0 0.5,0.22386 0.5,0.5c0,0.27614 -0.22386,0.5 -0.5,0.5h-9c-0.27614,0 -0.5,-0.22386 -0.5,-0.5zM3,6c0,-0.27614 0.22386,-0.5 0.5,-0.5h9c0.27614,0 0.5,0.22386 0.5,0.5c0,0.27614 -0.22386,0.5 -0.5,0.5h-9c-0.27614,0 -0.5,-0.22386 -0.5,-0.5zM3,8.5c0,-0.27614 0.22386,-0.5 0.5,-0.5h5c0.27614,0 0.5,0.22386 0.5,0.5c0,0.27614 -0.22386,0.5 -0.5,0.5h-5c-0.27614,0 -0.5,-0.22386 -0.5,-0.5z"></path></g></g></svg>