<svg version="1.1" xmlns="http://www.w3.org/2000/svg" xmlns:xlink="http://www.w3.org/1999/xlink" width="16" height="16" viewBox="0,0,256,256"><g fill="#a9b63f" fill-rule="nonzero" stroke="none" stroke-width="1" stroke-linecap="butt" stroke-linejoin="miter" stroke-miterlimit="10" stroke-dasharray="" stroke-dashoffset="0" font-family="none" font-weight="none" font-size="none" text-anchor="none" style="mix-blend-mode: normal"><g transform="scale(16,16)"><path d="M8,15c-3.86599,0 -7,-3.13401 -7,-7c0,-3.86599 3.13401,-7 7,-7c3.86599,0 7,3.13401 7,7c0,3.86599 -3.13401,7 -7,7zM8,16c4.41828,0 8,-3.58172 8,-8c0,-4.41828 -3.58172,-8 -8,-8c-4.41828,0 -8,3.58172 -8,8c0,4.41828 3.58172,8 8,8z"></path><path d="M10.97,4.97c-0.00712,0.0069 -0.0138,0.01425 -0.02,0.022l-3.473,4.425l-2.093,-2.094c-0.29551,-0.27536 -0.75601,-0.26723 -1.04162,0.01838c-0.28561,0.28561 -0.29374,0.74611 -0.01838,1.04162l2.646,2.647c0.14402,0.14376 0.34028,0.22283 0.54375,0.21906c0.20346,-0.00377 0.39666,-0.09006 0.53525,-0.23906l3.992,-4.99c0.28284,-0.29687 0.27485,-0.76585 -0.01795,-1.05291c-0.2928,-0.28705 -0.76185,-0.28576 -1.05305,0.00291z"></path></g></g></svg>