<svg version="1.1" xmlns="http://www.w3.org/2000/svg" xmlns:xlink="http://www.w3.org/1999/xlink" width="16" height="16" viewBox="0,0,256,256"><g fill="#f4a261" fill-rule="nonzero" stroke="none" stroke-width="1" stroke-linecap="butt" stroke-linejoin="miter" stroke-miterlimit="10" stroke-dasharray="" stroke-dashoffset="0" font-family="none" font-weight="none" font-size="none" text-anchor="none" style="mix-blend-mode: normal"><g transform="translate(0,-0.00001)"><g><g transform="translate(0,-1.65771) scale(16,16)"><path d="M8.707,1.5c-0.3905,-0.39038 -1.0235,-0.39038 -1.414,0l-6.647,6.646c-0.19551,0.19551 -0.19551,0.51249 0,0.708c0.19551,0.19551 0.51249,0.19551 0.708,0l0.646,-0.647v5.293c0,0.82843 0.67157,1.5 1.5,1.5h9c0.82843,0 1.5,-0.67157 1.5,-1.5v-5.293l0.646,0.647c0.19551,0.19551 0.51249,0.19551 0.708,0c0.19551,-0.19551 0.19551,-0.51249 0,-0.708l-2.354,-2.353v-3.293c0,-0.27614 -0.22386,-0.5 -0.5,-0.5h-1c-0.27614,0 -0.5,0.22386 -0.5,0.5v1.293zM13,7.207v6.293c0,0.27614 -0.22386,0.5 -0.5,0.5h-9c-0.27614,0 -0.5,-0.22386 -0.5,-0.5v-6.293l5,-5z"></path></g></g></g></g></svg>