<svg xmlns="http://www.w3.org/2000/svg" width="500" zoomAndPan="magnify" viewBox="0 0 375 374.999991" height="500"
     preserveAspectRatio="xMidYMid meet" version="1.0">
    <defs>
        <g/>
    </defs>
    <g fill="#f4a261" fill-opacity="1">
        <g transform="translate(49.187239, 218.975396)">
            <g>
                <path d="M 48.058594 -51.34375 L 48.058594 -52.09375 L 1.613281 -52.09375 L 1.613281 -51.34375 L 18.152344 -51.34375 L 18.152344 -13.367188 C 18.152344 -5.992188 24.144531 0 31.578125 0 L 31.578125 -51.34375 Z M 48.058594 -51.34375 "/>
            </g>
        </g>
    </g>
    <g fill="#f4a261" fill-opacity="1">
        <g transform="translate(95.282885, 218.975396)">
            <g>
                <path d="M 17.113281 -50.019531 C 17.113281 -53.765625 14.347656 -56.875 10.085938 -56.875 C 5.933594 -56.875 3.167969 -53.765625 3.167969 -50.019531 C 3.167969 -46.332031 5.933594 -43.160156 10.085938 -43.160156 C 14.347656 -43.160156 17.113281 -46.332031 17.113281 -50.019531 Z M 3.859375 -37.226562 L 3.859375 -12.675781 C 3.859375 -5.648438 9.507812 0 16.539062 0 L 16.539062 -24.546875 C 16.539062 -31.578125 10.832031 -37.226562 3.859375 -37.226562 Z M 3.859375 -37.226562 "/>
            </g>
        </g>
    </g>
    <g fill="#f4a261" fill-opacity="1">
        <g transform="translate(111.992168, 218.975396)">
            <g>
                <path d="M 24.316406 -34.460938 C 27.3125 -34.460938 28.699219 -32.386719 28.699219 -28.007812 L 28.699219 -10.71875 C 28.699219 -4.78125 33.539062 0 39.414062 0 L 41.375 0 L 41.375 -18.613281 C 41.375 -23.339844 42.355469 -34.460938 49.097656 -34.460938 C 52.09375 -34.460938 53.535156 -32.386719 53.535156 -28.007812 L 53.535156 -10.71875 C 53.535156 -4.78125 58.316406 0 64.253906 0 L 66.152344 0 L 66.152344 -24.777344 C 66.152344 -32.730469 61.832031 -37.976562 53.9375 -37.976562 C 46.503906 -37.976562 42.816406 -33.308594 41.316406 -26.277344 C 40.796875 -33.421875 36.535156 -37.976562 29.160156 -37.976562 C 21.78125 -37.976562 18.09375 -33.363281 16.597656 -26.507812 C 16.597656 -32.441406 11.8125 -37.226562 5.878906 -37.226562 L 3.917969 -37.226562 L 3.917969 -10.71875 C 3.917969 -4.78125 8.757812 0 14.636719 0 L 16.597656 0 L 16.597656 -21.089844 C 17.058594 -28.523438 19.648438 -34.460938 24.316406 -34.460938 Z M 24.316406 -34.460938 "/>
            </g>
        </g>
    </g>
    <g fill="#f4a261" fill-opacity="1">
        <g transform="translate(178.139689, 218.975396)">
            <g>
                <path d="M 31.808594 -5.992188 C 34.289062 -2.246094 38.492188 0 42.929688 0 L 51.921875 0 L 30.65625 -31.808594 L 48.003906 -52.152344 L 46.792969 -52.152344 L 30.136719 -32.558594 L 20.917969 -46.214844 C 18.441406 -49.902344 14.292969 -52.152344 9.796875 -52.152344 L 1.152344 -52.152344 L 21.207031 -22.070312 L 2.421875 0 L 3.628906 0 L 21.609375 -21.265625 Z M 31.808594 -5.992188 "/>
            </g>
        </g>
    </g>
    <g fill="#f4a261" fill-opacity="1">
        <g transform="translate(227.577309, 218.975396)">
            <g>
                <path d="M 3.917969 -52.09375 L 3.917969 -12.675781 C 3.917969 -5.648438 9.625 0 16.597656 0 L 16.597656 -39.472656 C 16.597656 -46.445312 10.949219 -52.09375 3.917969 -52.09375 Z M 3.917969 -52.09375 "/>
            </g>
        </g>
    </g>
    <g fill="#f4a261" fill-opacity="1">
        <g transform="translate(244.399978, 218.975396)">
            <g/>
        </g>
    </g>
    <g fill="#f4a261" fill-opacity="1">
        <g transform="translate(249.354724, 218.975396)">
            <g/>
        </g>
    </g>
    <g fill="#f4a261" fill-opacity="1">
        <g transform="translate(254.30947, 218.975396)">
            <g/>
        </g>
    </g>
    <g fill="#f4a261" fill-opacity="1">
        <g transform="translate(259.264216, 218.975396)">
            <g/>
        </g>
    </g>
    <g fill="#f4a261" fill-opacity="1">
        <g transform="translate(264.214412, 218.975396)">
            <g>
                <path d="M 17.113281 -50.019531 C 17.113281 -53.765625 14.347656 -56.875 10.085938 -56.875 C 5.933594 -56.875 3.167969 -53.765625 3.167969 -50.019531 C 3.167969 -46.332031 5.933594 -43.160156 10.085938 -43.160156 C 14.347656 -43.160156 17.113281 -46.332031 17.113281 -50.019531 Z M 3.859375 -37.226562 L 3.859375 -12.675781 C 3.859375 -5.648438 9.507812 0 16.539062 0 L 16.539062 -24.546875 C 16.539062 -31.578125 10.832031 -37.226562 3.859375 -37.226562 Z M 3.859375 -37.226562 "/>
            </g>
        </g>
    </g>
    <g fill="#f4a261" fill-opacity="1">
        <g transform="translate(280.923694, 218.975396)">
            <g>
                <path d="M 44.890625 -19.535156 C 44.890625 -31.695312 39.070312 -38.722656 29.90625 -38.722656 C 23.222656 -38.722656 18.441406 -34.632812 16.597656 -27.027344 L 16.597656 -40.222656 C 16.597656 -47.195312 10.949219 -52.84375 3.917969 -52.84375 L 3.917969 -12.445312 C 3.917969 -5.589844 9.507812 0 16.367188 0 L 16.367188 -12.734375 C 17.980469 -4.496094 22.820312 0 29.792969 0 C 39.011719 0 44.890625 -7.03125 44.890625 -19.535156 Z M 16.597656 -17.171875 L 16.597656 -21.839844 C 17.171875 -30.253906 20.746094 -35.726562 24.433594 -35.726562 C 28.640625 -35.726562 31.464844 -29.273438 31.464844 -19.535156 C 31.464844 -9.625 28.640625 -2.996094 24.433594 -2.996094 C 20.746094 -2.996094 17.171875 -8.585938 16.597656 -17.171875 Z M 16.597656 -17.171875 "/>
            </g>
        </g>
    </g>
    <g fill="#f4a261" fill-opacity="1">
        <g transform="translate(252.861184, 224.381556)">
            <g>
                <path d="M -14.230469 -42.234375 L -0.945312 -12.03125 C 1.585938 -6.277344 8.316406 -3.65625 14.113281 -6.207031 L 0.828125 -36.414062 C -1.703125 -42.167969 -8.433594 -44.785156 -14.230469 -42.234375 Z M -14.230469 -42.234375 "/>
            </g>
        </g>
    </g>
</svg>