<svg xmlns="http://www.w3.org/2000/svg" width="500" zoomAndPan="magnify"
     viewBox="0 0 375 374.999991" height="500" preserveAspectRatio="xMidYMid meet" version="1.0">
    <defs>
        <clipPath id="7ae4ba5497">
            <path d="M 179 101.433594 L 199 101.433594 L 199 150 L 179 150 Z M 179 101.433594 " clip-rule="nonzero"/>
        </clipPath>
    </defs>
    <path fill="#f4a261"
          d="M 214.242188 196.699219 C 214.847656 196.910156 215.246094 196.582031 215.664062 196.417969 C 219.515625 194.832031 223.367188 193.222656 227.242188 191.660156 C 229.554688 190.730469 232.027344 191.660156 233.171875 193.855469 C 234.246094 195.90625 233.617188 198.496094 231.585938 199.753906 C 223.390625 204.816406 215.269531 210.015625 206.328125 213.722656 C 202.894531 215.144531 199.394531 216.289062 195.914062 217.5 C 191.082031 219.179688 186.367188 218.527344 181.582031 217.382812 C 174.976562 215.796875 168.488281 213.792969 162.042969 211.648438 C 159.617188 210.832031 157.304688 210.902344 154.972656 211.71875 C 153.035156 212.394531 151.121094 213.210938 149.183594 213.933594 C 145.9375 215.144531 143.347656 213.746094 142.527344 210.363281 C 141.222656 204.882812 139.890625 199.425781 138.605469 193.949219 C 138 191.382812 139.402344 188.886719 141.945312 188.398438 C 149.976562 186.859375 157.84375 184.621094 165.800781 182.777344 C 170.519531 181.679688 174.835938 182.683594 178.710938 185.644531 C 178.851562 185.738281 179.015625 185.832031 179.132812 185.949219 C 183.078125 190.332031 188.351562 190.683594 193.699219 190.847656 C 195.261719 190.890625 196.804688 190.847656 198.273438 191.453125 C 200 192.152344 201.402344 193.179688 201.683594 195.160156 C 201.960938 197.234375 200.863281 198.703125 199.230469 199.800781 C 197.222656 201.128906 194.957031 201.574219 192.625 201.714844 C 189.777344 201.875 186.953125 201.828125 184.128906 201.480469 C 181.394531 201.152344 178.875 200.242188 176.492188 198.890625 C 174.742188 197.886719 172.921875 196.980469 171.148438 196.046875 C 170.238281 195.554688 169.351562 195.554688 168.765625 196.488281 C 168.136719 197.492188 168.628906 198.238281 169.46875 198.914062 C 175.652344 203.8125 182.679688 205.886719 190.523438 205.539062 C 194.421875 205.375 198.273438 205.09375 201.613281 202.714844 C 204.507812 200.640625 205.976562 197.910156 205.394531 194.296875 C 205.183594 192.945312 204.554688 191.753906 203.664062 190.753906 C 203.199219 190.214844 203.339844 190.007812 203.945312 189.796875 C 208.589844 188.117188 213.238281 186.390625 217.882812 184.757812 C 220.078125 183.988281 222.269531 185.085938 223.203125 187.207031 C 224.136719 189.375 223.390625 191.871094 221.289062 193.015625 C 219.46875 193.992188 217.578125 194.808594 215.734375 195.71875 C 215.128906 195.882812 214.542969 196 214.242188 196.699219 Z M 214.242188 196.699219 "
          fill-opacity="1" fill-rule="nonzero"/>
    <path fill="#f4a261"
          d="M 215.875 148.566406 C 205.953125 156.238281 197.269531 165.148438 189.636719 175.082031 C 188.632812 176.363281 187.628906 177.671875 186.625 178.953125 C 186.578125 179 186.460938 178.976562 186.367188 179 C 186.089844 178.695312 186.226562 178.371094 186.296875 178.042969 C 189.472656 160.460938 198.902344 147.378906 214.683594 138.914062 C 220.707031 135.671875 227.21875 133.945312 233.988281 133.199219 C 235.808594 132.988281 237 134.296875 236.695312 136.160156 C 235.039062 146.304688 230.859375 155.28125 224.066406 162.980469 C 215.640625 172.515625 205.066406 178.277344 192.554688 180.515625 C 191.925781 180.632812 191.269531 180.703125 190.640625 180.773438 C 190.570312 180.773438 190.476562 180.726562 190.3125 180.65625 C 197.621094 168.878906 206.558594 158.5 216.386719 148.871094 C 216.621094 148.332031 217.136719 148.078125 217.53125 147.703125 C 217.882812 147.355469 218.207031 146.980469 218.347656 146.886719 C 217.765625 147.425781 217.019531 148.265625 215.875 148.566406 Z M 215.875 148.566406 "
          fill-opacity="1" fill-rule="nonzero"/>
    <path fill="#f4a261"
          d="M 181.699219 164.890625 C 174.742188 164.074219 167.902344 161.53125 161.882812 157.054688 C 152.847656 150.363281 147.222656 141.5 145.074219 130.449219 C 144.605469 128.09375 145.726562 126.902344 148.132812 127.183594 C 166.339844 129.28125 181.605469 143.667969 184.78125 161.742188 C 185.132812 163.816406 184.199219 164.984375 181.699219 164.890625 Z M 181.699219 164.890625 "
          fill-opacity="1" fill-rule="nonzero"/>
    <g clip-path="url(#7ae4ba5497)">
        <path fill="#f4a261"
              d="M 198.367188 125.480469 C 198.296875 133.527344 196.007812 140.824219 191.410156 147.402344 C 189.824219 149.664062 188.257812 149.710938 186.671875 147.496094 C 177.265625 134.386719 177.335938 116.339844 186.835938 103.304688 C 188.1875 101.4375 189.871094 101.4375 191.199219 103.304688 C 195.9375 109.949219 198.296875 117.363281 198.367188 125.480469 Z M 198.367188 125.480469 "
              fill-opacity="1" fill-rule="nonzero"/>
    </g>
</svg>