<svg version="1.1" xmlns="http://www.w3.org/2000/svg" xmlns:xlink="http://www.w3.org/1999/xlink" width="128px" height="128px" viewBox="0,0,256,256"><g fill="#f4a261" fill-rule="nonzero" stroke="none" stroke-width="1" stroke-linecap="butt" stroke-linejoin="miter" stroke-miterlimit="10" stroke-dasharray="" stroke-dashoffset="0" font-family="none" font-weight="none" font-size="none" text-anchor="none" style="mix-blend-mode: normal"><g transform="scale(2,2)"><g><g><path d="M50,37c-1.66,0 -3,-1.34 -3,-3v-20c0,-1.66 1.34,-3 3,-3c1.66,0 3,1.34 3,3v20c0,1.66 -1.34,3 -3,3z"></path></g><g><path d="M78,37c-1.66,0 -3,-1.34 -3,-3v-20c0,-1.66 1.34,-3 3,-3c1.66,0 3,1.34 3,3v20c0,1.66 -1.34,3 -3,3z"></path></g><path d="M72,74c10.48,0 19,-8.52 19,-19v-8c0,-1.66 -1.34,-3 -3,-3h-8c-5.03,0 -9.6,1.98 -13,5.18v-45.18c0,-1.66 -1.34,-3 -3,-3c-1.66,0 -3,1.34 -3,3v45.18c-3.4,-3.2 -7.97,-5.18 -13,-5.18h-8c-1.66,0 -3,1.34 -3,3v8c0,10.48 8.52,19 19,19h5v18h-5c-7.17,0 -13,-5.83 -13,-13v-3c0,-1.66 -1.34,-3 -3,-3c-1.66,0 -3,1.34 -3,3v3c0,10.48 8.52,19 19,19h5v18h-5c-7.17,0 -13,-5.83 -13,-13v-2c0,-1.66 -1.34,-3 -3,-3c-1.66,0 -3,1.34 -3,3v2c0,10.48 8.52,19 19,19h5v2c0,1.66 1.34,3 3,3c1.66,0 3,-1.34 3,-3v-2h5c10.48,0 19,-8.52 19,-19v-3c0,-1.66 -1.34,-3 -3,-3c-1.66,0 -3,1.34 -3,3v3c0,7.17 -5.83,13 -13,13h-5v-18h5c10.48,0 19,-8.52 19,-19v-3c0,-1.66 -1.34,-3 -3,-3c-1.66,0 -3,1.34 -3,3v3c0,7.17 -5.83,13 -13,13h-5v-18zM80,50h5v5c0,7.17 -5.83,13 -13,13h-5v-5c0,-7.17 5.83,-13 13,-13zM43,55v-5h5c7.17,0 13,5.83 13,13v5h-5c-7.17,0 -13,-5.83 -13,-13z"></path></g></g></g></svg>