<?xml version="1.0" ?>
<svg fill="#f4a261" id="Layer_1" style="enable-background:new 0 0 128 128;" version="1.1" viewBox="0 0 128 128" xml:space="preserve"
     xmlns="http://www.w3.org/2000/svg">
    <g>
        <g>
            <path d="M50,37c-1.66,0-3-1.34-3-3V14c0-1.66,1.34-3,3-3s3,1.34,3,3v20C53,35.66,51.66,37,50,37z"/>
        </g>
        <g><path d="M78,37c-1.66,0-3-1.34-3-3V14c0-1.66,1.34-3,3-3s3,1.34,3,3v20C81,35.66,79.66,37,78,37z"/>
    </g>
        <path d="M72,74c10.48,0,19-8.52,19-19v-8c0-1.66-1.34-3-3-3h-8c-5.03,0-9.6,1.98-13,5.18V4c0-1.66-1.34-3-3-3s-3,1.34-3,3v45.18   C57.6,45.98,53.03,44,48,44h-8c-1.66,0-3,1.34-3,3v8c0,10.48,8.52,19,19,19h5v18h-5c-7.17,0-13-5.83-13-13v-3c0-1.66-1.34-3-3-3   s-3,1.34-3,3v3c0,10.48,8.52,19,19,19h5v18h-5c-7.17,0-13-5.83-13-13v-2c0-1.66-1.34-3-3-3s-3,1.34-3,3v2c0,10.48,8.52,19,19,19h5   v2c0,1.66,1.34,3,3,3s3-1.34,3-3v-2h5c10.48,0,19-8.52,19-19v-3c0-1.66-1.34-3-3-3s-3,1.34-3,3v3c0,7.17-5.83,13-13,13h-5V98h5   c10.48,0,19-8.52,19-19v-3c0-1.66-1.34-3-3-3s-3,1.34-3,3v3c0,7.17-5.83,13-13,13h-5V74H72z M80,50h5v5c0,7.17-5.83,13-13,13h-5v-5   C67,55.83,72.83,50,80,50z M43,55v-5h5c7.17,0,13,5.83,13,13v5h-5C48.83,68,43,62.17,43,55z"/></g>
</svg>