<svg version="1.1" xmlns="http://www.w3.org/2000/svg" xmlns:xlink="http://www.w3.org/1999/xlink" width="16" height="16" viewBox="0,0,256,256"><g fill="#f4a261" fill-rule="nonzero" stroke="none" stroke-width="1" stroke-linecap="butt" stroke-linejoin="miter" stroke-miterlimit="10" stroke-dasharray="" stroke-dashoffset="0" font-family="none" font-weight="none" font-size="none" text-anchor="none" style="mix-blend-mode: normal"><g transform="translate(0,0.00002)"><g><g transform="translate(0.00353,0.00162) scale(16,16)"><path d="M3.654,1.328c-0.11942,-0.15362 -0.29908,-0.24852 -0.49328,-0.26058c-0.1942,-0.01205 -0.38422,0.05991 -0.52172,0.19758l-1.034,1.035c-0.483,0.484 -0.661,1.169 -0.45,1.77c0.87574,2.48759 2.30029,4.7461 4.168,6.608c1.86193,1.86768 4.12043,3.29223 6.608,4.168c0.601,0.211 1.286,0.033 1.77,-0.45l1.034,-1.034c0.13767,-0.1375 0.20963,-0.32752 0.19758,-0.52172c-0.01205,-0.1942 -0.10696,-0.37386 -0.26058,-0.49328l-2.307,-1.794c-0.16438,-0.12749 -0.37819,-0.17247 -0.58,-0.122l-2.19,0.547c-0.59461,0.14861 -1.2236,-0.02562 -1.657,-0.459l-2.456,-2.457c-0.43374,-0.43319 -0.60836,-1.06221 -0.46,-1.657l0.548,-2.19c0.05047,-0.20181 0.00549,-0.41562 -0.122,-0.58zM1.884,0.511c0.354,-0.35411 0.84305,-0.53909 1.34278,-0.50791c0.49973,0.03119 0.96199,0.27554 1.26922,0.67091l1.794,2.306c0.329,0.423 0.445,0.974 0.315,1.494l-0.547,2.19c-0.05752,0.23072 0.01002,0.47471 0.178,0.643l2.457,2.457c0.1685,0.16833 0.41297,0.2359 0.644,0.178l2.189,-0.547c0.51995,-0.13 1.0708,-0.01386 1.494,0.315l2.306,1.794c0.829,0.645 0.905,1.87 0.163,2.611l-1.034,1.034c-0.74,0.74 -1.846,1.065 -2.877,0.702c-2.63882,-0.92847 -5.03473,-2.43916 -7.01,-4.42c-1.98071,-1.97498 -3.49139,-4.37054 -4.42,-7.009c-0.362,-1.03 -0.037,-2.137 0.703,-2.877l1.034,-1.034z"></path></g></g></g></g></svg>