<svg version="1.1" xmlns="http://www.w3.org/2000/svg" xmlns:xlink="http://www.w3.org/1999/xlink" width="16" height="16" viewBox="0,0,256,256"><g fill="#ffb03b" fill-rule="nonzero" stroke="none" stroke-width="1" stroke-linecap="butt" stroke-linejoin="miter" stroke-miterlimit="10" stroke-dasharray="" stroke-dashoffset="0" font-family="none" font-weight="none" font-size="none" text-anchor="none" style="mix-blend-mode: normal"><g transform="scale(16,16)"><path d="M16,8c0,4.41828 -3.58172,8 -8,8c-4.41828,0 -8,-3.58172 -8,-8c0,-4.41828 3.58172,-8 8,-8c4.41828,0 8,3.58172 8,8zM8.287,5.906c-0.778,0.324 -2.334,0.994 -4.666,2.01c-0.378,0.15 -0.577,0.298 -0.595,0.442c-0.03,0.243 0.275,0.339 0.69,0.47l0.175,0.055c0.408,0.133 0.958,0.288 1.243,0.294c0.26,0.006 0.549,-0.1 0.868,-0.32c2.179,-1.471 3.304,-2.214 3.374,-2.23c0.05,-0.012 0.12,-0.026 0.166,0.016c0.047,0.041 0.042,0.12 0.037,0.141c-0.03,0.129 -1.227,1.241 -1.846,1.817c-0.193,0.18 -0.33,0.307 -0.358,0.336c-0.06166,0.06301 -0.12433,0.12502 -0.188,0.186c-0.38,0.366 -0.664,0.64 0.015,1.088c0.327,0.216 0.589,0.393 0.85,0.571c0.284,0.194 0.568,0.387 0.936,0.629c0.093,0.06 0.183,0.125 0.27,0.187c0.331,0.236 0.63,0.448 0.997,0.414c0.214,-0.02 0.435,-0.22 0.547,-0.82c0.265,-1.417 0.786,-4.486 0.906,-5.751c0.00732,-0.10516 0.00296,-0.2108 -0.013,-0.315c-0.00941,-0.08408 -0.05011,-0.16154 -0.114,-0.217c-0.09099,-0.06281 -0.19946,-0.09535 -0.31,-0.093c-0.3,0.005 -0.763,0.166 -2.984,1.09z"></path></g></g></svg>